<?xml version="1.0" encoding="UTF-8" standalone="no"?>
<!-- Uploaded to: SVG Repo, www.svgrepo.com, Generator: SVG Repo Mixer Tools -->

<svg
   width="800px"
   height="800px"
   viewBox="0 0 24 24"
   fill="none"
   version="1.1"
   id="svg248"
   sodipodi:docname="commandStart.svg"
   inkscape:version="1.2.2 (732a01da63, 2022-12-09)"
   xmlns:inkscape="http://www.inkscape.org/namespaces/inkscape"
   xmlns:sodipodi="http://sodipodi.sourceforge.net/DTD/sodipodi-0.dtd"
   xmlns="http://www.w3.org/2000/svg"
   xmlns:svg="http://www.w3.org/2000/svg">
  <defs
     id="defs252" />
  <sodipodi:namedview
     id="namedview250"
     pagecolor="#ffffff"
     bordercolor="#000000"
     borderopacity="0.25"
     inkscape:showpageshadow="2"
     inkscape:pageopacity="0.0"
     inkscape:pagecheckerboard="0"
     inkscape:deskcolor="#d1d1d1"
     showgrid="false"
     inkscape:zoom="1.03625"
     inkscape:cx="386.48975"
     inkscape:cy="399.51749"
     inkscape:window-width="1920"
     inkscape:window-height="1009"
     inkscape:window-x="-8"
     inkscape:window-y="-8"
     inkscape:window-maximized="1"
     inkscape:current-layer="svg248" />
  <path
     d="m 8.867485,10.65278 c 0.8205319,0.518723 1.230742,0.778079 1.371449,1.110186 0.122869,0.289966 0.122869,0.618268 0,0.908292 -0.140707,0.332049 -0.5509171,0.591405 -1.371449,1.110174 L 5.0137496,16.217841 C 4.103088,16.793566 3.6477543,17.081457 3.2720006,17.050846 2.9444714,17.024213 2.6442343,16.85594 2.4483162,16.589091 2.2235502,16.282983 2.2235502,15.739829 2.2235502,14.653522 V 9.7806855 c 0,-1.0862962 0,-1.6294385 0.224766,-1.9355635 C 2.6442343,7.5782837 2.9444714,7.4099591 3.2720006,7.3833202 3.6477543,7.3527672 4.103088,7.6406351 5.0137496,8.2163713 Z"
     stroke="#000000"
     stroke-width="1.14635"
     stroke-linejoin="round"
     id="path246" />
  <path
     fill-rule="evenodd"
     clip-rule="evenodd"
     d="m 17.342655,6.9862408 5.890482,4.4178152 -0.280496,0.841488 h -0.467556 v 5.376177 H 12.200257 v -5.376177 h -0.467494 l -0.280496,-0.841488 z m -4.207411,4.3243162 v 5.376177 h 8.414854 V 11.310557 L 17.342655,8.1549748 Z"
     fill="#080341"
     id="path2"
     style="stroke-width:0.623325" />
</svg>
