<?xml version="1.0" encoding="iso-8859-1"?>
<!-- Generator: Adobe Illustrator 19.0.0, SVG Export Plug-In . SVG Version: 6.00 Build 0)  -->
<svg version="1.1" id="Layer_1" xmlns="http://www.w3.org/2000/svg" xmlns:xlink="http://www.w3.org/1999/xlink" x="0px" y="0px"
	 viewBox="0 0 490.667 490.667" style="enable-background:new 0 0 490.667 490.667;" xml:space="preserve">
<g>
	<g>
		<g>
			<path d="M320,341.333h-18.987l29.44-147.243c0.661-3.349-0.299-6.805-2.603-9.301c-2.304-2.475-5.611-3.755-9.045-3.392
				l-79.424,8.832l37.376-112.192c1.109-3.243,0.555-6.827-1.451-9.6C273.301,65.643,270.08,64,266.645,64h-85.333
				c-4.843,0-9.067,3.264-10.304,7.957l-53.333,202.667c-0.917,3.499,0,7.232,2.432,9.899c2.453,2.667,6.101,3.968,9.643,3.328
				l112.405-18.731l-16.043,72.213h-23.445c-3.691,0-7.125,1.941-9.067,5.077c-1.941,3.136-2.133,7.061-0.469,10.368l42.667,85.333
				c1.6,3.179,4.651,5.355,8.192,5.803c0.448,0.064,0.896,0.085,1.344,0.085c3.051,0,5.995-1.323,8.021-3.648l74.667-85.333
				c2.752-3.136,3.435-7.616,1.685-11.435C327.979,343.765,324.181,341.333,320,341.333z M247.765,418.347l-27.84-55.68h14.741
				c4.992,0,9.323-3.477,10.411-8.384l21.333-96c0.768-3.456-0.235-7.083-2.667-9.643c-2.432-2.581-5.952-3.755-9.493-3.179
				l-111.744,18.624l47.04-178.773h62.315l-37.973,113.963c-1.173,3.456-0.469,7.253,1.813,10.091
				c2.283,2.837,5.76,4.245,9.472,3.904l81.493-9.067l-29.141,145.707c-0.619,3.115,0.192,6.379,2.219,8.853
				c2.027,2.475,5.056,3.904,8.256,3.904h8.491L247.765,418.347z"/>
			<path d="M245.333,0C110.059,0,0,110.059,0,245.333s110.059,245.333,245.333,245.333s245.333-110.059,245.333-245.333
				S380.608,0,245.333,0z M245.333,469.333c-123.52,0-224-100.48-224-224s100.48-224,224-224s224,100.48,224,224
				S368.853,469.333,245.333,469.333z"/>
		</g>
	</g>
</g>
<g>
</g>
<g>
</g>
<g>
</g>
<g>
</g>
<g>
</g>
<g>
</g>
<g>
</g>
<g>
</g>
<g>
</g>
<g>
</g>
<g>
</g>
<g>
</g>
<g>
</g>
<g>
</g>
<g>
</g>
</svg>
