<?xml version="1.0" encoding="UTF-8" standalone="no"?> <svg xmlns="http://www.w3.org/2000/svg" width="117.018" height="45.435" viewBox="0 0 117.018 45.435">
  <g id="Group_1699" data-name="Group 1699" transform="translate(-838.531 -1667.22)">
    <g id="Group_1649" data-name="Group 1649">
      <g id="Group_1648" data-name="Group 1648">
        <g id="Group_1647" data-name="Group 1647">
          <path id="Path_307" data-name="Path 307" d="M944.493,1676.68s-16.449,14.671-18.8,35.975h8.463A70.658,70.658,0,0,1,944.493,1676.68Z"/>
        </g>
      </g>
    </g>
    <g id="Group_1652" data-name="Group 1652">
      <g id="Group_1651" data-name="Group 1651">
        <g id="Group_1650" data-name="Group 1650">
          <path id="Path_308" data-name="Path 308" d="M898.644,1684.38s12.914,11.547,14.757,28.271h-6.642A55.553,55.553,0,0,0,898.644,1684.38Z"/>
        </g>
      </g>
    </g>
    <g id="Group_1655" data-name="Group 1655">
      <g id="Group_1654" data-name="Group 1654">
        <g id="Group_1653" data-name="Group 1653">
          <path id="Path_309" data-name="Path 309" d="M853.8,1701.54V1685.1s9.738,6.7,11.176,16.441,1.273,11.109,1.273,11.109h-8.936Z"/>
        </g>
      </g>
    </g>
    <g id="Group_1658" data-name="Group 1658">
      <g id="Group_1657" data-name="Group 1657">
        <g id="Group_1656" data-name="Group 1656">
          <path id="Path_310" data-name="Path 310" d="M867.849,1698.81a50.05,50.05,0,0,0,2.313-12.595s4.07,9.135,4.07,17.72l-4.07,1.757Z"/>
        </g>
      </g>
    </g>
    <g id="Group_1661" data-name="Group 1661">
      <g id="Group_1660" data-name="Group 1660">
        <g id="Group_1659" data-name="Group 1659">
          <path id="Path_311" data-name="Path 311" d="M915.563,1712.65l-6.742-28.271s14.32,7.425,15.754,17.16,1.279,11.111,1.279,11.111H915.563Z"/>
        </g>
      </g>
    </g>
    <g id="Group_1664" data-name="Group 1664">
      <g id="Group_1663" data-name="Group 1663">
        <g id="Group_1662" data-name="Group 1662">
          <path id="Path_312" data-name="Path 312" d="M888.962,1702.92v-14.376s-8.51,5.864-9.768,14.376-1.117,9.729-1.117,9.729h7.816Z"/>
        </g>
      </g>
    </g>
    <g id="Group_1667" data-name="Group 1667">
      <g id="Group_1666" data-name="Group 1666">
        <g id="Group_1665" data-name="Group 1665">
          <path id="Path_313" data-name="Path 313" d="M937.1,1698.81a49.954,49.954,0,0,0,2.313-12.594s4.072,9.134,4.072,17.721l-4.072,1.756Z"/>
        </g>
      </g>
    </g>
    <g id="Group_1670" data-name="Group 1670">
      <g id="Group_1669" data-name="Group 1669">
        <g id="Group_1668" data-name="Group 1668">
          <path id="Path_314" data-name="Path 314" d="M893.331,1701.88s3.245-3.066,4.327-10.447c0,0,4.191,12.657,2.162,21.221h-7.069Z"/>
        </g>
      </g>
    </g>
    <g id="Group_1698" data-name="Group 1698">
      <g id="Group_1673" data-name="Group 1673">
        <g id="Group_1672" data-name="Group 1672">
          <g id="Group_1671" data-name="Group 1671">
            <path id="Path_315" data-name="Path 315" d="M880.015,1712.65h-9.854c.617-7.08,3.383-17.017,3.383-17.017,4.861-16.5,13.738-23.119,15.5-23.1C889.046,1672.53,876.9,1692.45,880.015,1712.65Z"/>
          </g>
        </g>
      </g>
      <g id="Group_1676" data-name="Group 1676">
        <g id="Group_1675" data-name="Group 1675">
          <g id="Group_1674" data-name="Group 1674">
            <path id="Path_316" data-name="Path 316" d="M857.1,1702.07s-7.9-19.809-18.57-22.584c0,0,11.623,20.518,11.691,33.165h8.939Z"/>
          </g>
        </g>
      </g>
      <g id="Group_1679" data-name="Group 1679">
        <g id="Group_1678" data-name="Group 1678">
          <g id="Group_1677" data-name="Group 1677">
            <path id="Path_317" data-name="Path 317" d="M926.317,1667.22s-15.732,9.982-19.017,28.139l2.38,17.292h5.883S912.212,1682.34,926.317,1667.22Z"/>
          </g>
        </g>
      </g>
      <g id="Group_1682" data-name="Group 1682">
        <g id="Group_1681" data-name="Group 1681">
          <g id="Group_1680" data-name="Group 1680">
            <path id="Path_318" data-name="Path 318" d="M855.2,1675.72s16.189,15.59,18.152,36.932h-8.459S865.837,1693.57,855.2,1675.72Z"/>
          </g>
        </g>
      </g>
      <g id="Group_1685" data-name="Group 1685">
        <g id="Group_1684" data-name="Group 1684">
          <g id="Group_1683" data-name="Group 1683">
            <path id="Path_319" data-name="Path 319" d="M918.134,1685.37s11.964,11.512,13.411,27.28H925.3A53.817,53.817,0,0,0,918.134,1685.37Z"/>
          </g>
        </g>
      </g>
      <g id="Group_1688" data-name="Group 1688">
        <g id="Group_1687" data-name="Group 1687">
          <g id="Group_1686" data-name="Group 1686">
            <path id="Path_320" data-name="Path 320" d="M944.493,1702.92v-14.376s-8.513,5.864-9.769,14.376-1.117,9.729-1.117,9.729h7.815Z"/>
          </g>
        </g>
      </g>
      <g id="Group_1691" data-name="Group 1691">
        <g id="Group_1690" data-name="Group 1690">
          <g id="Group_1689" data-name="Group 1689">
            <path id="Path_321" data-name="Path 321" d="M886.259,1705.87s3.232-15.369,10.317-19.143c0,0-3.53,16.954-1.429,25.921H883.52Z"/>
          </g>
        </g>
      </g>
      <g id="Group_1694" data-name="Group 1694">
        <g id="Group_1693" data-name="Group 1693">
          <g id="Group_1692" data-name="Group 1692">
            <path id="Path_322" data-name="Path 322" d="M907.194,1712.65h-9.536l1.757-13.685s5.727-9.981,3.4-20.252C902.811,1678.71,908.152,1696.56,907.194,1712.65Z"/>
          </g>
        </g>
      </g>
      <g id="Group_1697" data-name="Group 1697">
        <g id="Group_1696" data-name="Group 1696">
          <g id="Group_1695" data-name="Group 1695">
            <path id="Path_323" data-name="Path 323" d="M941.567,1704.21s6.16-14.258,13.982-16.057c0,0-8.879,15.3-9.188,24.5H939.88Z"/>
          </g>
        </g>
      </g>
    </g>
  </g>
</svg>
