<?xml version="1.0" encoding="iso-8859-1"?>
<!-- Uploaded to: SVG Repo, www.svgrepo.com, Generator: SVG Repo Mixer Tools -->
<!DOCTYPE svg PUBLIC "-//W3C//DTD SVG 1.1//EN" "http://www.w3.org/Graphics/SVG/1.1/DTD/svg11.dtd">
<svg fill="#000000" version="1.1" id="Capa_1" xmlns="http://www.w3.org/2000/svg" xmlns:xlink="http://www.w3.org/1999/xlink" 
	 width="800px" height="800px" viewBox="0 0 470.549 470.549"
	 xml:space="preserve">
<g>
	<g>
		<path d="M235.273,168.838c-36.633,0-66.436,29.803-66.436,66.436c0,36.633,29.803,66.436,66.436,66.436
			c36.633,0,66.436-29.803,66.436-66.436C301.709,198.641,271.906,168.838,235.273,168.838z M235.273,276.71
			c-22.848,0-41.436-18.588-41.436-41.436s18.588-41.436,41.436-41.436s41.436,18.588,41.436,41.436S258.121,276.71,235.273,276.71z
			"/>
		<path d="M401.637,68.911C357.201,24.477,298.123,0.005,235.285,0.001c-0.004,0-0.009,0-0.013,0s-0.009,0-0.013,0
			C172.42,0.004,113.343,24.477,68.908,68.911C24.472,113.348,0,172.43,0,235.274C0,298.118,24.473,357.2,68.91,401.638
			c44.435,44.434,103.512,68.904,166.351,68.91c0.004,0,0.009,0,0.013,0s0.009,0,0.013,0c62.838-0.004,121.916-24.477,166.352-68.91
			c44.438-44.439,68.91-103.521,68.91-166.364C470.549,172.431,446.074,113.348,401.637,68.911z M247.773,445.165v-74.948
			c0-6.903-5.598-12.5-12.5-12.5s-12.5,5.597-12.5,12.5v74.948c-106.01-6.248-191.145-91.381-197.392-197.391h74.948
			c6.903,0,12.5-5.598,12.5-12.5s-5.597-12.5-12.5-12.5H25.381c6.247-106.01,91.382-191.144,197.392-197.391v74.948
			c0,6.903,5.597,12.5,12.5,12.5s12.5-5.597,12.5-12.5V25.383c106.01,6.247,191.145,91.381,197.391,197.391h-74.947
			c-6.902,0-12.5,5.597-12.5,12.5s5.598,12.5,12.5,12.5h74.947C438.918,353.784,353.783,438.917,247.773,445.165z"/>
	</g>
</g>
</svg>