<?xml version="1.0" encoding="UTF-8" standalone="no"?>
<svg
   xmlns:dc="http://purl.org/dc/elements/1.1/"
   xmlns:cc="http://creativecommons.org/ns#"
   xmlns:rdf="http://www.w3.org/1999/02/22-rdf-syntax-ns#"
   xmlns:svg="http://www.w3.org/2000/svg"
   xmlns="http://www.w3.org/2000/svg"
   xmlns:sodipodi="http://sodipodi.sourceforge.net/DTD/sodipodi-0.dtd"
   xmlns:inkscape="http://www.inkscape.org/namespaces/inkscape"
   inkscape:version="1.0 (4035a4fb49, 2020-05-01)"
   height="121.4"
   width="496.29999"
   sodipodi:docname="icon.svg"
   xml:space="preserve"
   viewBox="0 0 496.29999 121.4"
   y="0px"
   x="0px"
   id="layer"
   version="1.1"><metadata
   id="metadata17"><rdf:RDF><cc:Work
       rdf:about=""><dc:format>image/svg+xml</dc:format><dc:type
         rdf:resource="http://purl.org/dc/dcmitype/StillImage" /><dc:title></dc:title></cc:Work></rdf:RDF></metadata><defs
   id="defs15" /><sodipodi:namedview
   inkscape:current-layer="layer"
   inkscape:window-maximized="1"
   inkscape:window-y="-8"
   inkscape:window-x="-8"
   inkscape:cy="64.6"
   inkscape:cx="282.5"
   inkscape:zoom="1.303681"
   showgrid="false"
   id="namedview13"
   inkscape:window-height="1017"
   inkscape:window-width="1920"
   inkscape:pageshadow="2"
   inkscape:pageopacity="0"
   guidetolerance="10"
   gridtolerance="10"
   objecttolerance="10"
   borderopacity="1"
   bordercolor="#666666"
   pagecolor="#ffffff" />
<style
   id="style2"
   type="text/css">
	.st0{fill:#F67A22;}
	.st1{fill:#FFFFFF;}
</style>


<path
   id="path8"
   d="m 321.1,50.9 h -3.8 V 29.1 h 4.2 c 9,0 15,1.7 15,10.2 -0.1,8.6 -6.5,11.6 -15.4,11.6 M 216.7,91.2 c -7.1,0 -12.3,-4 -12.3,-30.7 0,-26 5,-30.6 12.3,-30.6 7.4,0 12.3,4.6 12.3,30.6 0,26.7 -5.3,30.7 -12.3,30.7 M 459.1,59.3 494.8,2.9 h -45.7 l -16,32.8 -15,-32.8 h -48.3 l 35,56.4 -24.6,38.8 c -1.3,-9.4 -1.8,-17.6 -3.3,-23.5 -2.2,-8.8 -8.3,-13.8 -19.5,-14.7 V 59.6 C 374.7,55.4 380.2,45.4 380.2,32.2 380.2,10.5 365.7,3 340.9,3 H 272.5 V 35.6 C 264.9,13.7 246.4,0 216.7,0 192.5,0 175.6,9.2 166.1,24.4 L 170.7,3 H 129.8 L 120,75.5 h -0.3 L 109,3 H 61.7 L 51,75.5 H 50.7 L 41,3 H 0 L 24.9,118.4 H 74.5 L 85.2,43.6 h 0.4 l 10.7,74.8 h 49.6 l 11.3,-52.3 c 1.9,33 21.7,55.3 59.6,55.3 29.7,0 48.3,-13.7 55.8,-35.6 v 32.6 h 44.8 V 77.3 h 5.3 c 7.4,0 10.3,2.2 11.3,8 1.6,9.9 3,24.5 5.8,33.1 h 27.7 v 0 h 45.7 l 17.7,-34.9 17.1,34.9 h 48.3 z" />
<path
   id="path10"
   d="m -5,97.1 h 2.6 c 1.2,0.1 1.9,-0.4 1.9,-1.7 0,-1.3 -1.6,-1.4 -2.6,-1.4 H -5 M -8.2,91.5 H -3 c 3.8,0 5.9,0.9 5.9,4.2 0,2.6 -1.6,3.6 -3.5,3.7 l 3,5.5 h -3.5 l -2.7,-5.4 h -1.3 v 5.4 H -8.3 V 91.5 Z m 5.3,15.8 c 5,0 8.9,-4.1 8.9,-9.1 0,-5 -3.9,-9.1 -8.9,-9.1 -5,0 -8.8,4.1 -8.8,9.1 -0.1,5 3.8,9.1 8.8,9.1 m 0,-22.3 c 7.3,0 13.3,5.9 13.3,13.2 0,7.3 -5.9,13.2 -13.3,13.2 -7.3,0 -13.2,-5.9 -13.2,-13.2 C -16.2,90.9 -10.2,85 -2.9,85"
   class="st1" />
</svg>
