<?xml version="1.0" encoding="UTF-8" standalone="no"?>
<svg
   xmlns:dc="http://purl.org/dc/elements/1.1/"
   xmlns:cc="http://creativecommons.org/ns#"
   xmlns:rdf="http://www.w3.org/1999/02/22-rdf-syntax-ns#"
   xmlns:svg="http://www.w3.org/2000/svg"
   xmlns="http://www.w3.org/2000/svg"
   xmlns:sodipodi="http://sodipodi.sourceforge.net/DTD/sodipodi-0.dtd"
   xmlns:inkscape="http://www.inkscape.org/namespaces/inkscape"
   version="1.1"
   id="svg833"
   width="225"
   height="225"
   viewBox="0 0 225 225"
   sodipodi:docname="icon.svg"
   inkscape:version="1.0 (4035a4fb49, 2020-05-01)">
  <metadata
     id="metadata839">
    <rdf:RDF>
      <cc:Work
         rdf:about="">
        <dc:format>image/svg+xml</dc:format>
        <dc:type
           rdf:resource="http://purl.org/dc/dcmitype/StillImage" />
        <dc:title />
      </cc:Work>
    </rdf:RDF>
  </metadata>
  <defs
     id="defs837" />
  <sodipodi:namedview
     inkscape:document-rotation="0"
     pagecolor="#ffffff"
     bordercolor="#666666"
     borderopacity="1"
     objecttolerance="10"
     gridtolerance="10"
     guidetolerance="10"
     inkscape:pageopacity="0"
     inkscape:pageshadow="2"
     inkscape:window-width="1920"
     inkscape:window-height="1017"
     id="namedview835"
     showgrid="false"
     inkscape:zoom="5.1873836"
     inkscape:cx="112.5"
     inkscape:cy="109.32831"
     inkscape:window-x="-8"
     inkscape:window-y="-8"
     inkscape:window-maximized="1"
     inkscape:current-layer="g841" />
  <g
     inkscape:groupmode="layer"
     inkscape:label="Image"
     id="g841">
    <path
       id="path859"
       d="m 69.75,121.251 c 12.2375,-0.15909 32.2625,-0.15909 44.5,0 12.2375,0.15909 2.225,0.28926 -22.25,0.28926 -24.475,0 -34.4875,-0.13017 -22.25,-0.28926 z m 86.32895,-26.83433 c 0.048,-1.16495 0.28494,-1.4019 0.60416,-0.60417 0.28887,0.72187 0.25335,1.58437 -0.0789,1.91667 -0.3323,0.33229 -0.56864,-0.25834 -0.52522,-1.3125 z M 204.87244,68.25 C 203.62857,66.663944 203.66394,66.628574 205.25,67.872445 206.91575,69.178814 207.44548,70 206.62244,70 c -0.20765,0 -0.99515,-0.7875 -1.75,-1.75 z M 148.8125,55.316886 c 0.72187,-0.288871 1.58437,-0.253344 1.91667,0.07895 0.33229,0.332292 -0.25834,0.568641 -1.3125,0.52522 -1.16495,-0.04798 -1.4019,-0.284941 -0.60417,-0.604167 z m -5,-13 c 0.72187,-0.288871 1.58437,-0.253344 1.91667,0.07895 0.33229,0.332292 -0.25834,0.568641 -1.3125,0.52522 -1.16495,-0.04798 -1.4019,-0.284941 -0.60417,-0.604167 z"
       style="fill:#b9b9b9;fill-opacity:1" />
    <path
       id="path857"
       d="m 48,108.27747 c 44.854316,-0.69648 81.768,-0.70895 81.34619,-0.0275 -0.25532,0.4125 -22.60017,0.64857 -49.655207,0.5246 C 52.635942,108.65063 38.375,108.42692 48,108.27747 Z"
       style="fill:#a3a3a3;fill-opacity:1" />
    <path
       id="path855"
       d="m 153,69.622445 c 0,-0.207656 0.7875,-0.995156 1.75,-1.75 1.58606,-1.243871 1.62143,-1.208501 0.37756,0.377555 C 153.82119,69.915748 153,70.445479 153,69.622445 Z m -8.1875,-14.305559 c 0.72187,-0.288871 1.58437,-0.253344 1.91667,0.07895 0.33229,0.332292 -0.25834,0.568641 -1.3125,0.52522 -1.16495,-0.04798 -1.4019,-0.284941 -0.60417,-0.604167 z"
       style="fill:#8c8c8c;fill-opacity:1" />
    <path
       id="path853"
       d="m 178.75,77.33772 c 0.6875,-0.27741 1.8125,-0.27741 2.5,0 0.6875,0.27741 0.125,0.50439 -1.25,0.50439 -1.375,0 -1.9375,-0.22698 -1.25,-0.50439 z M 141.8125,55.316886 c 0.72187,-0.288871 1.58437,-0.253344 1.91667,0.07895 0.33229,0.332292 -0.25834,0.568641 -1.3125,0.52522 -1.16495,-0.04798 -1.4019,-0.284941 -0.60417,-0.604167 z M 150.75,42.337719 c 0.6875,-0.277412 1.8125,-0.277412 2.5,0 0.6875,0.277413 0.125,0.504386 -1.25,0.504386 -1.375,0 -1.9375,-0.226973 -1.25,-0.504386 z"
       style="fill:#767676;fill-opacity:1" />
    <path
       id="path851"
       d="m 195.87244,77.25 c -1.24387,-1.58606 -1.2085,-1.62143 0.37756,-0.37756 1.66575,1.30637 2.19548,2.12756 1.37244,2.12756 -0.20765,0 -0.99515,-0.7875 -1.75,-1.75 z M 154.75,42.337719 c 0.6875,-0.277412 1.8125,-0.277412 2.5,0 0.6875,0.277413 0.125,0.504386 -1.25,0.504386 -1.375,0 -1.9375,-0.226973 -1.25,-0.504386 z"
       style="fill:#606060;fill-opacity:1" />
    <path
       id="path849"
       d="m 178.75,107.33772 c 0.6875,-0.27741 1.8125,-0.27741 2.5,0 0.6875,0.27741 0.125,0.50439 -1.25,0.50439 -1.375,0 -1.9375,-0.22698 -1.25,-0.50439 z m -20,-65.000001 c 0.6875,-0.277412 1.8125,-0.277412 2.5,0 0.6875,0.277413 0.125,0.504386 -1.25,0.504386 -1.375,0 -1.9375,-0.226973 -1.25,-0.504386 z"
       style="fill:#494949;fill-opacity:1" />
    <path
       id="path847"
       d="M 29.923077,127.07692 C 28.315385,125.46923 27,123.45579 27,122.6026 c 0,-0.85318 -1.302246,-2.22466 -2.893881,-3.04772 -4.535993,-2.34566 -9.234224,-7.5863 -11.698237,-13.04879 C 9.9662575,101.09322 8.4038369,91.4537 9.4393147,88.1912 10.987019,83.31482 41.04925,66.114971 61,58.691197 86.439178,49.225152 122.44359,43 151.75319,43 h 12.54127 l 8.88064,7.595189 c 7.67009,6.559864 9.72564,7.792314 15.07959,9.041307 11.0436,2.576297 19.67823,9.699647 24.62847,20.317874 2.17822,4.67226 2.58539,6.96303 2.58539,14.54563 0,7.62915 -0.3975,9.83774 -2.60966,14.5 -3.6773,7.7501 -8.69361,13.09095 -16.03288,17.07016 -6.06681,3.28931 -6.75623,3.42952 -16.82601,3.42197 -9.12357,-0.007 -11.15544,-0.33037 -15.5,-2.46807 -6.94176,-3.41562 -14.10954,-10.89218 -17.40747,-18.15738 l -2.76077,-6.08184 -1.10489,2.85758 c -0.60769,1.57167 -1.40632,4.88258 -1.77475,7.35758 -1.27159,8.54235 2.02577,8 -48.638492,8 -41.838395,0 -44.918045,0.11847 -45.491605,1.75 -2.623956,7.46402 -11.944045,9.78182 -17.398946,4.32692 z m 158.859043,-10.6276 c 17.02821,-7.10225 19.90152,-31.02617 4.93808,-41.11575 -12.15898,-8.198597 -26.58288,-5.19587 -34.19654,7.11894 -2.63042,4.2546 -3.02023,5.81123 -2.99727,11.96907 0.0294,7.88682 1.43315,11.38411 6.67222,16.62319 6.55899,6.55898 17.35007,8.83861 25.58351,5.40455 z m -17.2071,-7.71577 C 167.09522,106.18427 163,99.41276 163,94.55461 c 0,-4.10247 3.79359,-11.42299 7.20853,-13.91036 3.85713,-2.80944 12.4813,-3.3598 17.24274,-1.10035 8.50656,4.03663 11.78893,16.05446 6.51302,23.84633 -4.86933,7.19139 -14.92464,9.59114 -22.38927,5.34332 z m 12.7071,-2.10467 c 10.55919,-4.49922 11.53372,-18.50425 1.65622,-23.80161 -4.10772,-2.203 -6.87888,-2.29678 -11.44856,-0.38745 -6.63773,2.77342 -9.56557,12.23757 -5.77236,18.65896 1.62384,2.74893 8.27792,6.89872 11.0647,6.90043 0.70516,4.4e-4 2.73016,-0.61621 4.5,-1.37033 z M 130,107.58179 c 0,-0.78002 0.27314,-2.13002 0.60699,-3 C 131.15579,103.15164 126.12277,103 78.106989,103 46.139775,103 25,103.36917 25,103.92742 c 0,0.51008 1.185686,1.86008 2.634859,3 2.585606,2.03384 3.566975,2.07258 52.5,2.07258 C 122.51468,109 130,108.78711 130,107.58179 Z M 137,92.5 c 1.29175,-1.375 2.0949,-2.5 1.78478,-2.5 -2.71068,0 -18.21177,-3.55595 -22.66757,-5.19994 -7.79263,-2.87512 -17.697374,-8.77191 -25.561611,-15.218093 l -6.645737,-5.447399 -5.204931,1.545059 C 57.726139,71.907079 23.804376,88.76719 22.228629,93.75 21.915587,94.7399 33.57098,95 78.242353,95 h 56.409017 z m 11.02299,-14.54506 c 2.85014,-5.586737 8.46199,-11.568812 13.77226,-14.680838 l 4.46254,-2.615223 -3.37889,-2.802538 c -3.09312,-2.565504 -4.07908,-2.804815 -11.65734,-2.82944 -13.15697,-0.04275 -49.2792,4.151494 -56.049871,6.508098 -1.606483,0.559154 1.845999,3.610882 9.879901,8.733077 10.65424,6.792844 25.14804,11.460274 36.17809,11.650394 4.54885,0.0784 4.80857,-0.0731 6.79331,-3.96353 z"
       style="fill:#333333;fill-opacity:1" />
    <text
       id="text859"
       y="168.87126"
       x="46.073322"
       style="font-style:normal;font-weight:normal;font-size:40px;line-height:1.25;font-family:sans-serif;letter-spacing:0px;word-spacing:0px;fill:#000000;fill-opacity:1;stroke:none"
       xml:space="preserve"><tspan
         y="168.87126"
         x="46.073322"
         id="tspan857"
         sodipodi:role="line">KRESS</tspan></text>
  </g>
</svg>
